<svg xmlns="http://www.w3.org/2000/svg" viewBox="0 0 300 300">
<defs>
<style>.cls-1{fill:#0e1726;}.cls-2{fill:#e0e6ed;}</style>
</defs>
<rect class="cls-1" width="300" height="300"/>
<path class="cls-2" d="M91.37,150a60.51,60.51,0,0,0-62.27,57,1.86,1.86,0,0,0-.1.58V259a12,12,0,0,0,12,12H92.36a1.86,1.86,0,0,0,.58-.1A60.5,60.5,0,0,0,91.37,150Z"/>
<path class="cls-2" d="M91.37,150A60.5,60.5,0,0,0,92.94,29.1a1.86,1.86,0,0,0-.58-.1H41A12,12,0,0,0,29,41V92.36a1.86,1.86,0,0,0,.1.58A60.51,60.51,0,0,0,91.37,150Z"/>
<path class="cls-2" d="M259.08,29.23H207.72a1.58,1.58,0,0,0-.58.11A60.5,60.5,0,1,0,271,93.17a1.81,1.81,0,0,0,.11-.58V41.23A12,12,0,0,0,259.08,29.23Z"/>
<path class="cls-2" d="M208.65,150.44a60.5,60.5,0,0,0-1.56,120.87,1.8,1.8,0,0,0,.57.1H259a12,12,0,0,0,12-12V208.05a1.92,1.92,0,0,0-.11-.58A60.5,60.5,0,0,0,208.65,150.44Z"/>
</svg>